<?xml version="1.0" encoding="UTF-8"?>
<svg id="_Слой_1" data-name="Слой_1" xmlns="http://www.w3.org/2000/svg" viewBox="0 0 830.3 188.43">
  <defs>
    <style>
      .cls-1 {
        stroke: #e30613;
      }

      .cls-1, .cls-2, .cls-3, .cls-4, .cls-5 {
        stroke-miterlimit: 10;
      }

      .cls-1, .cls-2, .cls-3, .cls-5 {
        fill: none;
      }

      .cls-1, .cls-5 {
        stroke-width: 3px;
      }

      .cls-6, .cls-4 {
        fill: #fff;
      }

      .cls-2, .cls-3, .cls-4, .cls-5 {
        stroke: #1d1d1b;
      }

      .cls-7 {
        fill: #e30613;
      }

      .cls-3 {
        stroke-width: 2px;
      }

      .cls-8 {
        fill: #1d1d1b;
      }
    </style>
  </defs>
  <rect class="cls-6" width="830.3" height="188.43"/>
  <rect class="cls-4" x="101.85" y="33.04" width="651.83" height="97.28"/>
  <line class="cls-2" x1="174.1" y1="33.04" x2="174.1" y2="130.32"/>
  <line class="cls-2" x1="274.91" y1="33.04" x2="274.91" y2="130.32"/>
  <line class="cls-2" x1="394.7" y1="33.04" x2="394.7" y2="130.32"/>
  <line class="cls-2" x1="552.83" y1="33.04" x2="552.83" y2="130.32"/>
  <line class="cls-5" x1="199.11" y1="129.87" x2="168.27" y2="160.71"/>
  <line class="cls-5" x1="315.88" y1="130.54" x2="285.04" y2="161.38"/>
  <line class="cls-5" x1="441.49" y1="130.09" x2="410.65" y2="160.93"/>
  <line class="cls-5" x1="576.01" y1="130.09" x2="545.17" y2="160.93"/>
  <line class="cls-5" x1="694.53" y1="130.09" x2="663.69" y2="160.93"/>
  <polyline class="cls-5" points="776.45 161.16 807.29 130.32 73.51 130.32 42.67 161.16"/>
  <g>
    <line class="cls-3" x1="16.17" y1="81.68" x2="89.91" y2="81.68"/>
    <polygon class="cls-8" points="84.29 89.08 87.44 81.68 84.29 74.27 101.85 81.68 84.29 89.08"/>
  </g>
  <g>
    <line class="cls-1" x1="174.1" y1="130.32" x2="143.98" y2="130.32"/>
    <polygon class="cls-7" points="148.19 124.76 145.83 130.32 148.19 135.87 135.02 130.32 148.19 124.76"/>
  </g>
  <g>
    <line class="cls-1" x1="274.91" y1="130.32" x2="241.04" y2="130.32"/>
    <polygon class="cls-7" points="245.25 124.76 242.89 130.32 245.25 135.87 232.09 130.32 245.25 124.76"/>
  </g>
  <g>
    <line class="cls-1" x1="394.7" y1="130.32" x2="359.76" y2="130.32"/>
    <polygon class="cls-7" points="363.98 124.76 361.62 130.32 363.98 135.87 350.81 130.32 363.98 124.76"/>
  </g>
  <g>
    <line class="cls-1" x1="552.83" y1="130.32" x2="502.66" y2="130.32"/>
    <polygon class="cls-7" points="506.87 124.76 504.51 130.32 506.87 135.87 493.7 130.32 506.87 124.76"/>
  </g>
  <g>
    <line class="cls-1" x1="753.68" y1="130.32" x2="711.25" y2="130.32"/>
    <polygon class="cls-7" points="715.47 124.76 713.11 130.32 715.47 135.87 702.3 130.32 715.47 124.76"/>
  </g>
  <g>
    <line class="cls-3" x1="108.43" y1="81.68" x2="162.16" y2="81.68"/>
    <polygon class="cls-8" points="156.55 89.08 159.69 81.68 156.55 74.27 174.1 81.68 156.55 89.08"/>
  </g>
  <g>
    <line class="cls-3" x1="223.4" y1="81.89" x2="263.18" y2="81.89"/>
    <polygon class="cls-8" points="257.56 89.29 260.71 81.89 257.56 74.48 275.12 81.89 257.56 89.29"/>
  </g>
  <g>
    <line class="cls-3" x1="350.81" y1="81.89" x2="382.76" y2="81.89"/>
    <polygon class="cls-8" points="377.14 89.29 380.29 81.89 377.14 74.48 394.7 81.89 377.14 89.29"/>
  </g>
  <g>
    <line class="cls-3" x1="511.32" y1="81.68" x2="540.89" y2="81.68"/>
    <polygon class="cls-8" points="535.27 89.08 538.42 81.68 535.27 74.27 552.83 81.68 535.27 89.08"/>
  </g>
  <g>
    <line class="cls-3" x1="753.68" y1="81.68" x2="772.32" y2="81.68"/>
    <polygon class="cls-8" points="766.7 89.08 769.85 81.68 766.7 74.27 784.26 81.68 766.7 89.08"/>
  </g>
</svg>